<?xml version="1.0" encoding="utf-8"?>
<!-- Generator: Adobe Illustrator 16.0.0, SVG Export Plug-In . SVG Version: 6.00 Build 0)  -->
<!DOCTYPE svg PUBLIC "-//W3C//DTD SVG 1.1//EN" "http://www.w3.org/Graphics/SVG/1.1/DTD/svg11.dtd">
<svg version="1.1" id="Layer_1" xmlns="http://www.w3.org/2000/svg" xmlns:xlink="http://www.w3.org/1999/xlink" x="0px" y="0px"
	 width="555.253px" height="304px" viewBox="0 0 555.253 304" enable-background="new 0 0 555.253 304" xml:space="preserve">
<g>
	<defs>
		<rect id="SVGID_1_" x="0" width="555.252" height="304"/>
	</defs>
	<clipPath id="SVGID_2_">
		<use xlink:href="#SVGID_1_"  overflow="visible"/>
	</clipPath>
	<g clip-path="url(#SVGID_2_)">
		<defs>
			<rect id="SVGID_3_" x="0" width="555.252" height="304"/>
		</defs>
		<clipPath id="SVGID_4_">
			<use xlink:href="#SVGID_3_"  overflow="visible"/>
		</clipPath>
		<path clip-path="url(#SVGID_4_)" fill="#D2E9F7" d="M291.601,110.455h-0.589c-2.584-10.89-10.8-18.856-20.55-18.856
			c-4.257,0-8.213,1.537-11.547,4.151c-2.163-17.154-14.269-30.303-28.922-30.303c-13.153,0-24.281,10.583-27.987,25.156
			c-1.67-0.55-3.417-0.869-5.229-0.869c-10.038,0-18.336,8.984-19.855,20.72h-3.278c-8.264,0-15.027,8.258-15.027,18.35v1.352
			c0,10.092,6.763,18.35,15.027,18.35h117.957c8.268,0,15.026-8.258,15.026-18.35v-1.352
			C306.627,118.713,299.868,110.455,291.601,110.455"/>
		<path clip-path="url(#SVGID_4_)" fill="#FFFFFF" d="M277.781,114.962h-0.518c-2.284-9.599-9.522-16.621-18.118-16.621
			c-3.753,0-7.24,1.352-10.179,3.657c-1.908-15.121-12.579-26.713-25.498-26.713c-11.594,0-21.404,9.329-24.673,22.176
			c-1.471-0.483-3.01-0.764-4.607-0.764c-8.85,0-16.164,7.919-17.505,18.264h-2.889c-7.285,0-13.246,7.278-13.246,16.175v1.194
			c0,8.895,5.961,16.175,13.246,16.175h103.986c7.283,0,13.246-7.28,13.246-16.175v-1.194
			C291.027,122.24,285.064,114.962,277.781,114.962"/>
		<path clip-path="url(#SVGID_4_)" fill="#0686D8" d="M248.089,93.636c-4.307-8.101-11.588-12.938-19.479-12.938
			c-4.176,0-8.271,1.366-11.842,3.953l-1.2-2.476c3.934-2.847,8.444-4.352,13.042-4.352c8.691,0,16.712,5.327,21.453,14.248
			L248.089,93.636z"/>
		<path clip-path="url(#SVGID_4_)" fill="#0686D8" d="M291.601,149.943h-17.988v-2.875h17.988c7.636,0,13.85-7.588,13.85-16.91
			v-1.354c0-9.326-6.214-16.914-13.85-16.914h-1.472l-0.245-1.037c-2.495-10.489-10.48-17.815-19.422-17.815
			c-3.865,0-7.64,1.357-10.91,3.919l-1.523,1.196l-0.275-2.184c-2.126-16.853-13.801-29.084-27.76-29.084
			c-8.312,0-16.153,4.455-21.515,12.222c-1.146,1.662-2.169,3.464-3.039,5.358c-0.952,2.08-1.73,4.288-2.31,6.566l-0.336,1.32
			l-1.094-0.357c-1.655-0.547-3.312-0.82-4.923-0.82c-9.368,0-17.229,8.204-18.693,19.505l-0.157,1.211h-4.283
			c-7.636,0-13.85,7.588-13.85,16.914v1.354c0,9.322,6.213,16.91,13.85,16.91h65.825v2.875h-65.825
			c-8.935,0-16.204-8.875-16.204-19.785v-1.354c0-10.912,7.269-19.789,16.204-19.789h2.296
			c2.035-12.077,10.644-20.716,20.838-20.716c1.465,0,2.958,0.2,4.452,0.595c0.58-2.016,1.302-3.974,2.155-5.834
			c0.943-2.055,2.052-4.007,3.294-5.806c5.811-8.417,14.308-13.244,23.314-13.244c14.553,0,26.815,12.263,29.778,29.457
			c3.286-2.167,6.948-3.304,10.69-3.304c9.686,0,18.367,7.702,21.417,18.855c8.808,0.182,15.926,8.988,15.926,19.786v1.354
			C307.805,141.068,300.536,149.943,291.601,149.943"/>
		<path clip-path="url(#SVGID_4_)" fill="#0686D8" d="M208.759,102.369h-2.354c0-6.232-4.151-11.301-9.252-11.301v-2.875
			C203.553,88.192,208.759,94.553,208.759,102.369"/>
		<path clip-path="url(#SVGID_4_)" fill="#D2E9F7" d="M173.007,197.466h-0.418c-1.842-7.748-7.69-13.42-14.628-13.42
			c-3.03,0-5.847,1.093-8.219,2.954c-1.54-12.211-10.157-21.57-20.587-21.57c-9.362,0-17.283,7.536-19.922,17.909
			c-1.188-0.394-2.431-0.618-3.721-0.618c-7.144,0-13.051,6.394-14.133,14.745h-2.333c-5.883,0-10.697,5.878-10.697,13.064v0.963
			c0,7.183,4.814,13.061,10.697,13.061h83.963c5.883,0,10.694-5.878,10.694-13.061v-0.963
			C183.701,203.344,178.89,197.466,173.007,197.466"/>
		<path clip-path="url(#SVGID_4_)" fill="#FFFFFF" d="M163.169,200.674H162.8c-1.625-6.827-6.777-11.829-12.896-11.829
			c-2.67,0-5.153,0.963-7.245,2.605c-1.357-10.766-8.954-19.017-18.148-19.017c-8.253,0-15.236,6.642-17.563,15.786
			c-1.047-0.344-2.144-0.546-3.28-0.546c-6.299,0-11.506,5.637-12.46,13h-2.056c-5.186,0-9.429,5.185-9.429,11.515v0.851
			c0,6.333,4.243,11.515,9.429,11.515h74.018c5.186,0,9.428-5.182,9.428-11.515v-0.851
			C172.597,205.858,168.355,200.674,163.169,200.674"/>
		<path clip-path="url(#SVGID_4_)" fill="#0686D8" d="M141.75,185.72c-3.002-5.646-8.08-9.019-13.581-9.019
			c-2.911,0-5.766,0.951-8.255,2.756l-1.201-2.475c2.853-2.066,6.123-3.156,9.456-3.156c6.302,0,12.117,3.863,15.556,10.332
			L141.75,185.72z"/>
		<path clip-path="url(#SVGID_4_)" fill="#0686D8" d="M173.007,225.991h-12.804v-2.875h12.804c5.249,0,9.52-5.215,9.52-11.623
			v-0.963c0-6.408-4.271-11.623-9.52-11.623h-1.302l-0.247-1.037c-1.733-7.292-7.285-12.387-13.498-12.387
			c-2.686,0-5.308,0.943-7.583,2.726l-1.523,1.194l-0.277-2.183c-1.487-11.792-9.657-20.354-19.424-20.354
			c-5.815,0-11.303,3.119-15.055,8.554c-0.805,1.172-1.521,2.43-2.125,3.751c-0.669,1.46-1.213,3.006-1.617,4.594l-0.335,1.317
			l-1.094-0.355c-1.152-0.378-2.301-0.569-3.417-0.569c-6.5,0-11.955,5.694-12.97,13.536l-0.157,1.213h-3.34
			c-5.249,0-9.52,5.215-9.52,11.623v0.963c0,6.408,4.271,11.623,9.52,11.623h34.196v2.875H89.043
			c-6.547,0-11.874-6.507-11.874-14.498v-0.963c0-7.995,5.327-14.498,11.874-14.498h1.36c1.581-8.617,7.781-14.749,15.106-14.749
			c0.97,0,1.957,0.12,2.949,0.359c0.401-1.332,0.891-2.632,1.46-3.874c0.677-1.479,1.479-2.89,2.379-4.2
			c4.2-6.083,10.345-9.575,16.855-9.575c10.37,0,19.132,8.617,21.432,20.765c2.287-1.412,4.805-2.149,7.375-2.149
			c6.959,0,13.206,5.473,15.489,13.432c6.343,0.288,11.432,6.678,11.432,14.49v0.963
			C184.881,219.484,179.554,225.991,173.007,225.991"/>
		<path clip-path="url(#SVGID_4_)" fill="#0686D8" d="M114.378,191.713h-2.354c0-4.208-2.802-7.629-6.247-7.629v-2.875
			C110.521,181.209,114.378,185.922,114.378,191.713"/>
		<path clip-path="url(#SVGID_4_)" fill="#D2E9F7" d="M512.644,154.769h-0.42c-1.839-7.748-7.688-13.42-14.628-13.42
			c-3.029,0-5.847,1.094-8.219,2.954c-1.539-12.211-10.156-21.569-20.588-21.569c-9.361,0-17.283,7.535-19.922,17.908
			c-1.187-0.392-2.432-0.618-3.722-0.618c-7.143,0-13.05,6.394-14.132,14.745h-2.336c-5.883,0-10.692,5.878-10.692,13.064v0.963
			c0,7.184,4.81,13.061,10.692,13.061h83.966c5.883,0,10.695-5.877,10.695-13.061v-0.963
			C523.339,160.646,518.526,154.769,512.644,154.769"/>
		<path clip-path="url(#SVGID_4_)" fill="#FFFFFF" d="M502.807,157.977h-0.371c-1.625-6.829-6.777-11.829-12.894-11.829
			c-2.673,0-5.155,0.963-7.246,2.605c-1.358-10.766-8.954-19.016-18.147-19.016c-8.256,0-15.238,6.639-17.565,15.785
			c-1.045-0.344-2.143-0.544-3.28-0.544c-6.299,0-11.504,5.636-12.458,12.998h-2.057c-5.187,0-9.429,5.186-9.429,11.516v0.85
			c0,6.334,4.242,11.515,9.429,11.515h74.019c5.187,0,9.429-5.181,9.429-11.515v-0.85
			C512.235,163.162,507.993,157.977,502.807,157.977"/>
		<path clip-path="url(#SVGID_4_)" fill="#0686D8" d="M481.385,143.022c-3.001-5.646-8.077-9.019-13.579-9.019
			c-2.913,0-5.767,0.951-8.256,2.754l-1.201-2.475c2.854-2.064,6.124-3.154,9.457-3.154c6.302,0,12.117,3.861,15.554,10.33
			L481.385,143.022z"/>
		<path clip-path="url(#SVGID_4_)" fill="#0686D8" d="M512.644,183.294h-12.805v-2.875h12.805c5.248,0,9.519-5.215,9.519-11.623
			v-0.963c0-6.408-4.271-11.623-9.519-11.623h-1.303l-0.248-1.037c-1.732-7.292-7.284-12.387-13.497-12.387
			c-2.686,0-5.307,0.943-7.581,2.726l-1.523,1.194l-0.276-2.185c-1.489-11.79-9.659-20.351-19.426-20.351
			c-5.815,0-11.302,3.118-15.055,8.553c-0.806,1.17-1.52,2.432-2.124,3.751c-0.668,1.46-1.214,3.005-1.618,4.594l-0.334,1.317
			l-1.095-0.355c-1.152-0.378-2.302-0.569-3.418-0.569c-6.499,0-11.955,5.692-12.97,13.536l-0.156,1.213h-3.342
			c-5.248,0-9.518,5.215-9.518,11.623v0.963c0,6.408,4.27,11.623,9.518,11.623h34.198v2.875h-34.198
			c-6.545,0-11.872-6.506-11.872-14.498v-0.963c0-7.992,5.327-14.498,11.872-14.498h1.361c1.582-8.617,7.783-14.749,15.106-14.749
			c0.972,0,1.959,0.12,2.949,0.359c0.401-1.332,0.892-2.631,1.459-3.874c0.678-1.479,1.48-2.89,2.382-4.2
			c4.199-6.083,10.343-9.575,16.854-9.575c10.37,0,19.132,8.617,21.431,20.765c2.287-1.412,4.807-2.149,7.376-2.149
			c6.961,0,13.205,5.473,15.489,13.432c6.343,0.288,11.431,6.678,11.431,14.49v0.963
			C524.516,176.788,519.188,183.294,512.644,183.294"/>
		<path clip-path="url(#SVGID_4_)" fill="#0686D8" d="M454.014,149.016h-2.354c0-4.208-2.802-7.629-6.244-7.629v-2.875
			C450.157,138.512,454.014,143.225,454.014,149.016"/>
		<path clip-path="url(#SVGID_4_)" fill="#FFFFFF" d="M426.624,40.438h-0.509c-2.241-9.433-9.359-16.338-17.808-16.338
			c-3.69,0-7.117,1.331-10.005,3.597c-1.876-14.867-12.369-26.262-25.066-26.262c-11.397,0-21.041,9.173-24.254,21.802
			c-1.447-0.476-2.958-0.75-4.531-0.75c-8.696,0-15.888,7.78-17.203,17.951h-2.842c-7.16,0-13.021,7.154-13.021,15.902v1.172
			c0,8.745,5.861,15.902,13.021,15.902h102.218c7.161,0,13.022-7.157,13.022-15.902V56.34
			C439.646,47.592,433.785,40.438,426.624,40.438"/>
		<path clip-path="url(#SVGID_4_)" fill="#0686D8" d="M426.624,74.851h-19.727v-2.875h19.727c6.532,0,11.845-6.491,11.845-14.464
			V56.34c0-7.975-5.313-14.462-11.845-14.462h-1.395l-0.245-1.037c-2.14-9.008-9.001-15.303-16.68-15.303
			c-3.319,0-6.56,1.166-9.368,3.367l-1.523,1.198l-0.275-2.186c-1.83-14.509-11.882-25.043-23.901-25.043
			c-10.668,0-19.966,8.355-23.129,20.791l-0.337,1.321l-1.095-0.359c-1.41-0.466-2.836-0.702-4.221-0.702
			c-8.041,0-14.788,7.042-16.045,16.739l-0.156,1.215h-3.848c-6.532,0-11.845,6.487-11.845,14.462v1.172
			c0,7.974,5.313,14.464,11.845,14.464h18.258v2.875h-18.258c-7.829,0-14.198-7.779-14.198-17.339V56.34
			c0-9.561,6.369-17.337,14.198-17.337h1.864c1.824-10.476,9.319-17.953,18.185-17.953c1.238,0,2.495,0.163,3.752,0.483
			c3.768-12.934,13.69-21.534,25.029-21.534c12.617,0,23.258,10.577,25.915,25.431c2.823-1.813,5.956-2.766,9.153-2.766
			c8.424,0,15.98,6.669,18.675,16.346c7.664,0.228,13.844,7.917,13.844,17.332v1.172C440.823,67.072,434.453,74.851,426.624,74.851"
			/>
		<path clip-path="url(#SVGID_4_)" fill="#5FB0E5" d="M394.339,68.057l-3.418-0.019c-0.408-2.169-1.106-4.2-2.048-6.02l2.419-2.957
			c0.867-1.052,0.873-2.767,0.009-3.816l-1.812-2.214c-0.861-1.054-2.263-1.059-3.127-0.009l-2.425,2.956
			c-1.486-1.149-3.151-2.003-4.92-2.495v-4.176c0-1.49-0.993-2.701-2.22-2.701h-2.557c-1.223,0-2.213,1.211-2.213,2.701v4.176
			c-1.747,0.481-3.378,1.323-4.855,2.439l-2.403-2.965c-0.861-1.058-2.266-1.076-3.13-0.019l-1.821,2.197
			c-0.864,1.044-0.873,2.759-0.015,3.818l2.403,2.972c-0.947,1.812-1.655,3.842-2.063,6.006l-3.418-0.017
			c-1.226-0.015-2.216,1.198-2.216,2.695l-0.016,3.126c-0.01,1.484,0.978,2.699,2.201,2.714l3.411,0.013
			c0.402,2.175,1.095,4.198,2.036,6.017l-2.435,2.958c-0.861,1.044-0.864,2.755-0.003,3.814l1.797,2.212
			c0.864,1.071,2.269,1.071,3.13,0.019l2.428-2.94c1.492,1.151,3.145,2.02,4.929,2.518l-0.015,4.167
			c-0.004,1.494,0.983,2.71,2.207,2.71l2.557,0.015c1.223,0,2.216-1.2,2.216-2.688l0.013-4.177c1.777-0.489,3.439-1.346,4.936-2.49
			l2.412,2.969c0.861,1.052,2.266,1.052,3.139,0l1.803-2.205c0.87-1.048,0.874-2.766,0-3.811l-2.397-2.965
			c0.941-1.827,1.646-3.848,2.048-6.023l3.418,0.011c1.22,0,2.21-1.206,2.214-2.695v-3.135
			C396.537,69.262,395.556,68.057,394.339,68.057 M375.523,80.844c-3.881,0-7.023-3.833-7.023-8.576
			c0-4.729,3.143-8.555,7.023-8.555c3.874,0,7.014,3.826,7.014,8.555C382.537,77.011,379.397,80.844,375.523,80.844"/>
		<path clip-path="url(#SVGID_4_)" fill="#0686D8" d="M376.74,99.389l-2.563-0.015c-0.901,0-1.751-0.429-2.392-1.213
			c-0.641-0.788-0.99-1.829-0.987-2.938l0.01-3.049c-1.235-0.44-2.428-1.048-3.565-1.829l-1.781,2.156
			c-0.634,0.776-1.483,1.205-2.388,1.205h-0.006c-0.907-0.003-1.763-0.438-2.403-1.228l-1.797-2.214
			c-0.638-0.784-0.986-1.825-0.983-2.929c0-1.104,0.355-2.138,0.996-2.915l1.781-2.169c-0.623-1.374-1.116-2.83-1.469-4.357
			l-2.501-0.007c-1.876-0.021-3.388-1.887-3.375-4.161l0.015-3.124c0-1.106,0.355-2.151,1.003-2.935
			c0.644-0.778,1.511-1.117,2.4-1.19l2.498,0.011c0.364-1.516,0.861-2.968,1.496-4.344l-1.763-2.18
			c-0.635-0.783-0.984-1.823-0.979-2.931c0.004-1.106,0.362-2.143,1-2.917l1.823-2.199c0.629-0.773,1.478-1.2,2.379-1.2h0.003
			c0.911,0,1.767,0.435,2.41,1.224l1.766,2.175c1.119-0.745,2.283-1.331,3.482-1.748v-3.062c0-2.284,1.521-4.14,3.394-4.14h2.553
			c1.873,0,3.396,1.856,3.396,4.14v3.062c1.245,0.436,2.435,1.041,3.56,1.804l1.777-2.166c1.321-1.609,3.468-1.605,4.789,0.006
			l1.812,2.216c0.641,0.775,0.993,1.816,0.99,2.92c0,1.108-0.355,2.149-1,2.931l-1.771,2.164c0.632,1.381,1.125,2.841,1.483,4.363
			l2.508,0.013c1.86,0.003,3.375,1.853,3.375,4.127v3.131c-0.009,2.28-1.529,4.134-3.394,4.134l-2.504-0.009
			c-0.356,1.513-0.853,2.972-1.487,4.359l1.763,2.177c0.635,0.762,0.99,1.799,0.99,2.907c0.003,1.114-0.355,2.156-1.002,2.937
			l-1.8,2.199c-1.334,1.612-3.482,1.612-4.804,0l-1.771-2.177c-1.135,0.764-2.33,1.368-3.568,1.797l-0.006,3.068
			C380.134,97.54,378.61,99.389,376.74,99.389 M366.896,86.714l0.794,0.614c1.423,1.1,2.959,1.885,4.562,2.332l0.917,0.256
			l-0.016,5.317c-0.003,0.337,0.107,0.659,0.304,0.898c0.193,0.236,0.45,0.367,0.724,0.367l2.563,0.015
			c0.57,0,1.036-0.562,1.036-1.249l0.012-5.331l0.914-0.25c1.615-0.444,3.151-1.219,4.57-2.304l0.797-0.61l3.078,3.785
			c0.401,0.49,1.063,0.487,1.475-0.011l1.799-2.197c0.199-0.242,0.307-0.558,0.307-0.896c0-0.333-0.107-0.644-0.3-0.876
			l-3.069-3.791l0.497-0.966c0.898-1.733,1.536-3.61,1.9-5.574l0.209-1.123l4.358,0.017c0.567,0,1.033-0.567,1.036-1.266v-3.125
			c0-0.691-0.46-1.252-1.023-1.252l-4.359-0.021l-0.208-1.114c-0.371-1.986-1.006-3.863-1.895-5.574l-0.503-0.971l3.087-3.771
			c0.199-0.24,0.307-0.558,0.307-0.898c0-0.333-0.104-0.648-0.298-0.884l-1.814-2.216c-0.404-0.49-1.061-0.498-1.459-0.004
			l-3.093,3.77l-0.794-0.616c-1.398-1.083-2.931-1.858-4.553-2.31l-0.916-0.254v-5.325c0-0.696-0.47-1.265-1.043-1.265h-2.553
			c-0.573,0-1.04,0.569-1.04,1.265v5.329l-0.919,0.251c-1.566,0.429-3.075,1.188-4.494,2.255l-0.797,0.603l-3.063-3.777
			c-0.196-0.24-0.46-0.375-0.739-0.375h-0.003c-0.272,0-0.527,0.127-0.717,0.363l-1.827,2.203c-0.193,0.234-0.304,0.55-0.304,0.887
			c-0.003,0.338,0.104,0.657,0.298,0.893l3.065,3.796L363.2,62.7c-0.896,1.707-1.536,3.579-1.91,5.555l-0.211,1.115l-4.356-0.019
			h-0.009c-0.276,0-0.53,0.127-0.721,0.357c-0.196,0.24-0.307,0.56-0.307,0.902l-0.016,3.131c-0.003,0.694,0.463,1.263,1.036,1.269
			l4.344,0.015l0.206,1.12c0.367,1.995,0.999,3.869,1.879,5.564l0.506,0.971l-3.103,3.777c-0.193,0.236-0.301,0.55-0.301,0.883
			c-0.003,0.339,0.104,0.655,0.301,0.895l1.8,2.216c0.196,0.243,0.46,0.378,0.735,0.378l0,0c0.276,0,0.533-0.131,0.727-0.367
			L366.896,86.714z M375.523,82.282c-4.521,0-8.2-4.49-8.2-10.012c0-5.51,3.679-9.997,8.2-9.997c4.515,0,8.19,4.486,8.19,9.997
			C383.714,77.792,380.038,82.282,375.523,82.282 M375.523,65.148c-3.223,0-5.847,3.193-5.847,7.122
			c0,3.936,2.624,7.137,5.847,7.137c3.219,0,5.836-3.201,5.836-7.137C381.359,68.341,378.742,65.148,375.523,65.148"/>
		<path clip-path="url(#SVGID_4_)" fill="#FFFFFF" d="M254.624,302.563h-61.561c-1.723,0-3.119-1.707-3.119-3.808V174.612
			c0-2.104,1.396-3.811,3.119-3.811h61.561c1.722,0,3.118,1.707,3.118,3.811v124.143
			C257.742,300.855,256.346,302.563,254.624,302.563"/>
		<path clip-path="url(#SVGID_4_)" fill="#0686D8" d="M191.122,229.992h-2.354V178.21c0-4.878,3.249-8.846,7.242-8.846h41.875v2.875
			H196.01c-2.695,0-4.888,2.681-4.888,5.971V229.992z"/>
		<path clip-path="url(#SVGID_4_)" fill="#0686D8" d="M251.678,304v-2.875c2.695,0,4.888-2.677,4.888-5.968V178.21
			c0-3.29-2.192-5.971-4.888-5.971v-2.875c3.993,0,7.242,3.968,7.242,8.846v116.947C258.92,300.035,255.671,304,251.678,304"/>
		<rect x="213.81" y="179.292" clip-path="url(#SVGID_4_)" fill="#0686D8" width="20.068" height="2.875"/>
		<path clip-path="url(#SVGID_4_)" fill="#0686D8" d="M223.843,297.198c-2.442,0-4.43-2.426-4.43-5.413
			c0-2.98,1.987-5.409,4.43-5.409c2.444,0,4.432,2.429,4.432,5.409C228.274,294.772,226.287,297.198,223.843,297.198
			 M223.843,289.251c-1.144,0-2.075,1.138-2.075,2.534c0,1.399,0.932,2.538,2.075,2.538c1.145,0,2.077-1.139,2.077-2.538
			C225.92,290.389,224.987,289.251,223.843,289.251"/>
		<rect x="196.724" y="189.818" clip-path="url(#SVGID_4_)" fill="#9ECFEF" width="54.239" height="93.33"/>
		<g opacity="0.3" clip-path="url(#SVGID_4_)">
			<g>
				<defs>
					<rect id="SVGID_5_" x="229.965" y="169.364" width="28.954" height="134.636"/>
				</defs>
				<clipPath id="SVGID_6_">
					<use xlink:href="#SVGID_5_"  overflow="visible"/>
				</clipPath>
				<path clip-path="url(#SVGID_6_)" fill="#0565A2" d="M256.156,302.053c0.488-0.341,0.891-0.831,1.168-1.43
					c0.982-1.509,1.595-3.392,1.595-5.466V178.21c0-2.073-0.611-3.957-1.594-5.469c-0.278-0.596-0.681-1.09-1.171-1.43
					c-1.236-1.198-2.779-1.947-4.478-1.947v1.438h-12.152v110.576h-9.561l1.589,11.818c0.561,4.185,2.719,7.558,5.625,9.366h14.499
					v1.44C253.377,304.003,254.92,303.251,256.156,302.053"/>
			</g>
		</g>
		<path clip-path="url(#SVGID_4_)" fill="#5FB0E5" d="M438.264,293.009H245.409c-0.861,0-1.569-0.86-1.569-1.916V122.894
			c0-1.056,0.708-1.916,1.569-1.916h192.854c0.864,0,1.569,0.86,1.569,1.916v168.199
			C439.833,292.148,439.128,293.009,438.264,293.009"/>
		<path clip-path="url(#SVGID_4_)" fill="#0686D8" d="M245.018,285.147h-2.354V126.926c0-4.073,2.714-7.384,6.048-7.384h74.96v2.875
			h-74.96c-2.035,0-3.693,2.022-3.693,4.509V285.147z"/>
		<path clip-path="url(#SVGID_4_)" fill="#0686D8" d="M434.965,294.446v-2.875c2.036,0,3.694-2.021,3.694-4.507V126.926
			c0-2.486-1.658-4.511-3.694-4.511h-31.583v-2.875h31.583c3.332,0,6.049,3.314,6.049,7.386v160.139
			C441.014,291.134,438.297,294.446,434.965,294.446"/>
		<rect x="253.359" y="134.512" clip-path="url(#SVGID_4_)" fill="#FFFFFF" width="175.895" height="139.604"/>
		<path clip-path="url(#SVGID_4_)" fill="#FFFFFF" d="M436.409,302.563H245.105c-4.593,0-8.51-4.062-9.253-9.599l-1.362-10.148
			h88.666l3.394,5.948h24.499l3.669-5.948h93.404l-1.184,8.827C446.093,297.939,441.636,302.563,436.409,302.563"/>
		<path clip-path="url(#SVGID_4_)" fill="#0686D8" d="M436.412,304H245.106c-5.195,0-9.575-4.541-10.415-10.804l-1.588-11.818
			h90.666l3.393,5.948h23.301l3.666-5.948h95.379l-1.41,10.501C447.156,298.904,442.239,304,436.412,304 M235.876,284.253
			l1.14,8.479c0.651,4.863,4.056,8.394,8.091,8.394h191.306c4.669,0,8.607-4.084,9.361-9.715l0.963-7.157h-91.433l-3.667,5.948
			h-25.703l-3.394-5.948H235.876z"/>
		<path clip-path="url(#SVGID_4_)" fill="#9ECFEF" d="M365.996,199.263l-4.709-0.022c-0.558-2.99-1.521-5.787-2.82-8.291
			l3.332-4.073c1.195-1.452,1.205-3.807,0.013-5.256l-2.495-3.047c-1.187-1.452-3.115-1.464-4.305-0.015l-3.338,4.072
			c-2.051-1.587-4.341-2.763-6.78-3.44v-5.749c0-2.052-1.367-3.722-3.054-3.722h-3.522c-1.686,0-3.047,1.67-3.047,3.722v5.749
			c-2.406,0.663-4.653,1.823-6.686,3.358l-3.313-4.08c-1.187-1.456-3.118-1.482-4.311-0.026l-2.508,3.024
			c-1.188,1.441-1.201,3.804-0.018,5.26l3.311,4.092c-1.306,2.496-2.281,5.293-2.845,8.272l-4.709-0.022
			c-1.683-0.019-3.05,1.65-3.05,3.714l-0.024,4.305c-0.006,2.044,1.352,3.717,3.034,3.735l4.7,0.02
			c0.555,2.994,1.505,5.783,2.802,8.283l-3.351,4.077c-1.187,1.441-1.192,3.792-0.007,5.252l2.475,3.051
			c1.195,1.471,3.126,1.471,4.313,0.022l3.342-4.051c2.054,1.588,4.334,2.782,6.79,3.471l-0.019,5.738
			c-0.01,2.052,1.354,3.732,3.034,3.732l3.525,0.015c1.684,0,3.051-1.646,3.051-3.698l0.015-5.754
			c2.449-0.674,4.739-1.853,6.8-3.429l3.322,4.088c1.184,1.448,3.121,1.448,4.322,0l2.483-3.036
			c1.195-1.444,1.201-3.807,0.003-5.248l-3.308-4.084c1.297-2.512,2.269-5.297,2.823-8.295l4.706,0.019
			c1.683,0,3.044-1.662,3.05-3.714v-4.316C369.024,200.925,367.673,199.263,365.996,199.263 M340.083,216.876
			c-5.343,0-9.671-5.278-9.671-11.811c0-6.518,4.328-11.784,9.671-11.784c5.337,0,9.659,5.267,9.659,11.784
			C349.742,211.598,345.42,216.876,340.083,216.876"/>
		<path clip-path="url(#SVGID_4_)" fill="#0686D8" d="M378.224,213.574l-2.305-0.577c0.202-1.201,0.361-2.433,0.478-3.66
			l2.339,0.329C378.613,210.979,378.441,212.29,378.224,213.574"/>
		<path clip-path="url(#SVGID_4_)" fill="#0686D8" d="M341.307,250.33c-0.53,0-1.058-0.011-1.582-0.041l0.102-2.871
			c2.057,0.102,4.172-0.011,6.214-0.345l0.313,2.85C344.693,250.192,342.995,250.33,341.307,250.33 M333.149,249.249
			c-2.161-0.581-4.289-1.404-6.33-2.441l0.904-2.653c1.916,0.973,3.908,1.744,5.935,2.287L333.149,249.249z M352.826,248.141
			l-0.717-2.736c1.965-0.771,3.89-1.764,5.726-2.95l1.104,2.542C356.98,246.265,354.923,247.32,352.826,248.141 M320.946,243.042
			c-1.858-1.456-3.624-3.13-5.242-4.964l1.597-2.107c1.521,1.722,3.179,3.287,4.917,4.653L320.946,243.042z M364.5,240.583
			l-1.45-2.265c1.637-1.562,3.163-3.306,4.546-5.186l1.75,1.921C367.875,237.057,366.244,238.921,364.5,240.583 M311.25,232.074
			c-1.334-2.152-2.52-4.463-3.525-6.862l2.097-1.306c0.941,2.249,2.054,4.413,3.305,6.431L311.25,232.074z M373.331,228.574
			l-1.998-1.521c1.094-2.145,2.038-4.425,2.805-6.775l2.188,1.063C375.505,223.85,374.499,226.283,373.331,228.574 M305.244,217.695
			c-0.641-2.575-1.097-5.244-1.357-7.929l2.339-0.337c0.242,2.516,0.671,5.017,1.272,7.431L305.244,217.695z M306.035,201.831
			l-2.351-0.161c0.125-2.703,0.447-5.401,0.956-8.019l2.29,0.663C306.455,196.77,306.155,199.297,306.035,201.831"/>
		<path clip-path="url(#SVGID_4_)" fill="#0686D8" d="M308.926,187.033l-2.154-1.153c0.313-0.876,0.652-1.748,1.012-2.602
			l1.174-3.474l2.177,1.093l-0.93,2.752l0.064,0.041l-0.38,0.876l0,0C309.549,185.375,309.224,186.198,308.926,187.033"/>
		<path clip-path="url(#SVGID_4_)" fill="#0686D8" d="M313.476,173.95l-2.177-1.093l2.345-6.948l2.177,1.093L313.476,173.95z
			 M318.165,160.055l-2.176-1.093l2.342-6.948l2.177,1.093L318.165,160.055z M322.853,146.159l-2.177-1.095l2.342-6.946l2.18,1.097
			L322.853,146.159z M327.54,132.268l-2.177-1.097l2.342-6.948l2.177,1.097L327.54,132.268z M332.227,118.372l-2.177-1.097
			l2.343-6.948l2.176,1.097L332.227,118.372z M336.914,104.477l-2.177-1.097l2.342-6.948l2.18,1.097L336.914,104.477z
			 M341.601,90.581l-2.176-1.097l2.345-6.948l2.177,1.097L341.601,90.581z M346.288,76.686l-2.177-1.095l2.345-6.948l2.177,1.095
			L346.288,76.686z"/>
		<path clip-path="url(#SVGID_4_)" fill="#0686D8" d="M350.975,62.79l-2.176-1.093l0.778-2.31l-0.037-0.022l0.47-1.265
			c0.45-1.213,0.965-2.401,1.529-3.538l2.017,1.49c-0.502,1.005-0.959,2.057-1.36,3.126L350.975,62.79z"/>
		<path clip-path="url(#SVGID_4_)" fill="#0686D8" d="M380.624,199.596l-2.299-0.613l1.346-7.532l2.296,0.614L380.624,199.596z
			 M383.313,184.529l-2.299-0.61l1.346-7.535l2.299,0.613L383.313,184.529z M386.004,169.466l-2.299-0.614l1.346-7.531l2.299,0.613
			L386.004,169.466z M388.695,154.398l-2.302-0.614l1.346-7.531l2.299,0.613L388.695,154.398z M391.384,139.333l-2.299-0.614
			l1.346-7.531l2.299,0.612L391.384,139.333z M394.075,124.266l-2.299-0.611l1.343-7.534l2.299,0.612L394.075,124.266z
			 M396.764,109.2l-2.299-0.613l1.346-7.532l2.299,0.612L396.764,109.2z M399.455,94.135l-2.299-0.614l1.346-7.534l2.299,0.614
			L399.455,94.135z M402.144,79.066l-2.299-0.614l1.346-7.532l2.299,0.616L402.144,79.066z M400.613,63.874
			c-0.426-2.413-1.1-4.733-2.004-6.89l2.097-1.312c0.999,2.384,1.741,4.939,2.21,7.597L400.613,63.874z M395.2,50.979
			c-1.33-1.788-2.869-3.386-4.567-4.747l1.29-2.403c1.867,1.494,3.557,3.25,5.021,5.218L395.2,50.979z M357.259,50.253l-1.674-2.021
			c1.545-1.911,3.271-3.598,5.135-5.016l1.245,2.442C360.257,46.955,358.676,48.501,357.259,50.253 M385.234,42.959
			c-1.87-0.822-3.847-1.402-5.877-1.724l0.301-2.853c2.198,0.35,4.344,0.979,6.373,1.874L385.234,42.959z M367.412,42.531
			l-0.742-2.729c2.082-0.842,4.246-1.385,6.44-1.613l0.199,2.863C371.302,41.262,369.315,41.759,367.412,42.531"/>
		<polygon clip-path="url(#SVGID_4_)" fill="#0686D8" points="378.598,210.942 376.299,210.328 376.967,206.589 379.266,207.199 		
			"/>
		<g opacity="0.3" clip-path="url(#SVGID_4_)">
			<g>
				<defs>
					<rect id="SVGID_7_" x="382.064" y="205.945" width="67.443" height="98.055"/>
				</defs>
				<clipPath id="SVGID_8_">
					<use xlink:href="#SVGID_7_"  overflow="visible"/>
				</clipPath>
				<path clip-path="url(#SVGID_8_)" fill="#0565A2" d="M420.545,205.945v1.438h-7.114v-1.438h-8.771v1.438h-10.68v-1.438h-5.705
					c-3.424,0-6.211,3.402-6.211,7.584v82.886c0,4.182,2.787,7.585,6.211,7.585h48.167c5.815-0.022,10.714-5.114,11.658-12.125
					l1.407-10.497h-8.498v-75.433H420.545z"/>
			</g>
		</g>
		<g opacity="0.3" clip-path="url(#SVGID_4_)">
			<g>
				<defs>
					<rect id="SVGID_9_" x="388.343" y="205.945" width="110.653" height="98.055"/>
				</defs>
				<clipPath id="SVGID_10_">
					<use xlink:href="#SVGID_9_"  overflow="visible"/>
				</clipPath>
				<path clip-path="url(#SVGID_10_)" fill="#0565A2" d="M492.785,205.945h-65.959v1.438h-7.118v-1.438h-8.77v1.438h-10.681v-1.438
					h-5.704c-3.425,0-6.211,3.402-6.211,7.584v82.886c0,4.182,2.786,7.585,6.211,7.585h98.231c3.428,0,6.211-3.403,6.211-7.585
					v-82.886C498.996,209.348,496.213,205.945,492.785,205.945"/>
			</g>
		</g>
		<path clip-path="url(#SVGID_4_)" fill="#FFFFFF" d="M491.679,302.563H389.382c-1.658,0-3.001-1.64-3.001-3.669v-87.847
			c0-2.024,1.343-3.664,3.001-3.664h102.297c1.658,0,3.004,1.64,3.004,3.664v87.851
			C494.683,300.923,493.337,302.563,491.679,302.563"/>
		<path clip-path="url(#SVGID_4_)" fill="#0686D8" d="M489.646,304h-98.232c-3.424,0-6.21-3.403-6.21-7.585v-82.886
			c0-4.182,2.786-7.584,6.21-7.584h5.705v2.875h-5.705c-2.124,0-3.856,2.111-3.856,4.709v82.886c0,2.595,1.732,4.71,3.856,4.71
			h98.232c2.128,0,3.856-2.115,3.856-4.71v-82.886c0-2.598-1.729-4.709-3.856-4.709h-65.959v-2.875h65.959
			c3.427,0,6.211,3.402,6.211,7.584v82.886C495.857,300.597,493.073,304,489.646,304"/>
		<rect x="407.799" y="205.945" clip-path="url(#SVGID_4_)" fill="#0686D8" width="8.771" height="2.875"/>
		<rect x="393.615" y="242.75" clip-path="url(#SVGID_4_)" fill="#0686D8" width="2.354" height="24.44"/>
		<rect x="400.402" y="215.521" clip-path="url(#SVGID_4_)" fill="#D2E9F7" width="79.205" height="78.899"/>
		<path clip-path="url(#SVGID_4_)" fill="#0686D8" d="M484.692,259.846c-2.2,0-3.991-2.186-3.991-4.873
			c0-2.688,1.791-4.874,3.991-4.874c2.201,0,3.991,2.186,3.991,4.874C488.684,257.66,486.894,259.846,484.692,259.846
			 M484.692,252.974c-0.904,0-1.637,0.895-1.637,1.999c0,1.101,0.732,1.999,1.637,1.999c0.901,0,1.638-0.898,1.638-1.999
			C486.33,253.868,485.594,252.974,484.692,252.974"/>
		<path clip-path="url(#SVGID_4_)" fill="#5FB0E5" d="M451.08,248.792l-19.275,13.589c-1.217,0.856-2.731-0.21-2.731-1.925v-27.181
			c0-1.711,1.515-2.781,2.731-1.924l19.275,13.589C452.291,245.797,452.291,247.935,451.08,248.792"/>
		<path clip-path="url(#SVGID_4_)" fill="#0686D8" d="M430.895,264.125c-0.516,0-1.03-0.165-1.499-0.498
			c-0.938-0.662-1.499-1.85-1.499-3.171v-27.177c0-1.325,0.561-2.508,1.499-3.175c0.94-0.658,2.06-0.658,2.998,0.004l19.272,13.589
			c0.938,0.659,1.499,1.849,1.499,3.171c0,1.321-0.562,2.512-1.499,3.17l-19.272,13.589
			C431.924,263.96,431.409,264.125,430.895,264.125 M430.897,232.489c-0.15,0-0.267,0.067-0.325,0.108
			c-0.098,0.067-0.322,0.27-0.322,0.682v27.177c0,0.412,0.225,0.614,0.322,0.682c0.095,0.067,0.353,0.21,0.644,0l19.272-13.589
			c0.291-0.206,0.322-0.546,0.322-0.681s-0.031-0.479-0.322-0.682l-19.272-13.589C431.1,232.52,430.992,232.489,430.897,232.489"/>
		<rect x="410.153" y="277.792" clip-path="url(#SVGID_4_)" fill="#0686D8" width="60.509" height="2.875"/>
		<rect x="422.507" y="273.353" clip-path="url(#SVGID_4_)" fill="#0686D8" width="2.354" height="11.75"/>
		<rect x="0.002" y="301.125" clip-path="url(#SVGID_4_)" fill="#0686D8" width="555.251" height="2.875"/>
		<path clip-path="url(#SVGID_4_)" fill="#FFFFFF" d="M123.848,302.521H74.032c-2.222,0-4.022-2.197-4.022-4.911v-60.834
			c0-2.714,1.8-4.915,4.022-4.915h49.816c2.222,0,4.022,2.201,4.022,4.915v60.834C127.87,300.323,126.07,302.521,123.848,302.521"/>
		<polygon clip-path="url(#SVGID_4_)" fill="#5FB0E5" points="127.87,279.693 111.714,261.673 98.94,273.633 84.611,255.23 
			70.009,275.396 70.009,285.829 127.87,285.829 		"/>
		<path clip-path="url(#SVGID_4_)" fill="#0686D8" d="M123.364,303.958H74.515c-3.134,0-5.683-3.114-5.683-6.939v-59.651
			c0-3.83,2.549-6.944,5.683-6.944h43.36v2.875h-43.36c-1.835,0-3.328,1.827-3.328,4.069v59.651c0,2.242,1.493,4.064,3.328,4.064
			h48.849c1.837,0,3.331-1.822,3.331-4.064h2.354C129.049,300.844,126.499,303.958,123.364,303.958"/>
		<rect x="70.008" y="284.392" clip-path="url(#SVGID_4_)" fill="#0686D8" width="57.863" height="2.875"/>
		<polygon clip-path="url(#SVGID_4_)" fill="#0686D8" points="70.891,276.351 69.126,274.445 84.58,253.104 99.063,271.705 
			110.998,260.531 112.431,262.814 98.815,275.561 84.643,257.356 		"/>
		<path clip-path="url(#SVGID_4_)" fill="#5FB0E5" d="M109.751,245.838c0,1.943-1.288,3.516-2.878,3.516
			c-1.589,0-2.877-1.572-2.877-3.516c0-1.938,1.288-3.515,2.877-3.515C108.463,242.323,109.751,243.899,109.751,245.838"/>
		<path clip-path="url(#SVGID_4_)" fill="#0686D8" d="M106.874,250.791c-2.236,0-4.056-2.22-4.056-4.953
			c0-2.729,1.819-4.948,4.056-4.948c2.237,0,4.056,2.22,4.056,4.948C110.93,248.571,109.11,250.791,106.874,250.791
			 M106.874,243.765c-0.938,0-1.702,0.929-1.702,2.073c0,1.149,0.764,2.078,1.702,2.078c0.938,0,1.702-0.929,1.702-2.078
			C108.576,244.693,107.812,243.765,106.874,243.765"/>
		<rect x="80.155" y="240.89" clip-path="url(#SVGID_4_)" fill="#0686D8" width="15.947" height="2.875"/>
		<rect x="73.89" y="246.489" clip-path="url(#SVGID_4_)" fill="#0686D8" width="15.945" height="2.875"/>
		<g opacity="0.3" clip-path="url(#SVGID_4_)">
			<g>
				<defs>
					<rect id="SVGID_11_" x="188.767" y="207.884" width="12.604" height="94.679"/>
				</defs>
				<clipPath id="SVGID_12_">
					<use xlink:href="#SVGID_11_"  overflow="visible"/>
				</clipPath>
				<path clip-path="url(#SVGID_12_)" fill="#0565A2" d="M201.239,298.097l0.132-51.779c0.006-2.1-0.914-4.062-2.301-5.038
					l-6.492-5.75l-0.994,1.673l-1.095-0.768v-24.496c0-1.674-0.685-3.148-1.721-4.055v22.108h1.176v68.763
					c0,2.101,1.396,3.808,3.119,3.808h6.451h0.537h0.298v-1.09C200.92,300.488,201.236,299.328,201.239,298.097"/>
			</g>
		</g>
		<g opacity="0.3" clip-path="url(#SVGID_4_)">
			<g>
				<defs>
					<rect id="SVGID_13_" x="110.162" y="231.86" width="18.886" height="71.648"/>
				</defs>
				<clipPath id="SVGID_14_">
					<use xlink:href="#SVGID_13_"  overflow="visible"/>
				</clipPath>
				<path clip-path="url(#SVGID_14_)" fill="#0565A2" d="M127.871,287.267L127.871,287.267v-2.875v-4.698v-42.918
					c0-2.714-1.802-4.915-4.023-4.915h-1.671v4.215l-1.409,1.011l-0.923-1.695l-7.172,5.828c-1.461,1.045-2.373,2.977-2.379,5.05
					l-0.13,51.341c-0.004,1.453,0.444,2.774,1.164,3.808v0.625v0.521h1.062c0.743,0.58,1.618,0.936,2.566,0.939l10.366,0.007
					c2.17-0.98,3.728-3.507,3.728-6.49h-1.177V287.267z"/>
			</g>
		</g>
		<polygon clip-path="url(#SVGID_4_)" fill="#5FB0E5" points="197.211,244.259 197.211,243.738 114.765,243.738 155.838,273.15 		
			"/>
		<polygon clip-path="url(#SVGID_4_)" fill="#D2E9F7" points="197.062,243.218 197.062,243.738 114.615,243.738 155.689,214.326 		
			"/>
		<path clip-path="url(#SVGID_4_)" fill="#FFFFFF" d="M186.172,279.099h-59.679v-67.16c0-1.962,1.304-3.557,2.915-3.557h53.85
			c1.609,0,2.914,1.595,2.914,3.557V279.099z"/>
		<path clip-path="url(#SVGID_4_)" fill="#0686D8" d="M187.35,280.536h-62.033v-68.598c0-2.756,1.834-4.994,4.091-4.994h53.85
			c2.256,0,4.092,2.238,4.092,4.994V280.536z M127.671,277.661h57.324v-65.723c0-1.168-0.779-2.119-1.737-2.119h-53.85
			c-0.958,0-1.737,0.951-1.737,2.119V277.661z"/>
		<polygon clip-path="url(#SVGID_4_)" fill="#D2E9F7" points="114.765,243.738 114.467,243.738 114.467,302.042 155.839,273.15 		
			"/>
		<polygon clip-path="url(#SVGID_4_)" fill="#D2E9F7" points="197.211,244.259 155.838,273.15 196.912,302.563 197.211,302.563 		
			"/>
		<polygon clip-path="url(#SVGID_4_)" fill="#9ECFEF" points="114.466,302.042 114.466,302.563 196.912,302.563 155.838,273.15 
			132.383,289.531 		"/>
		<polygon clip-path="url(#SVGID_4_)" fill="#0686D8" points="195.01,302.865 114.171,244.981 115.36,242.499 196.201,300.387 		"/>
		<polygon clip-path="url(#SVGID_4_)" fill="#0686D8" points="116.545,302.704 115.366,300.215 196.397,243.012 197.576,245.501 		
			"/>
		<path clip-path="url(#SVGID_4_)" fill="#0686D8" d="M193.272,303.978h-0.026l-4.971-0.034l0.013-2.875l4.971,0.034h0.014
			c0.656,0,1.274-0.312,1.742-0.876c0.47-0.569,0.729-1.325,0.731-2.138l0.132-51.779c0.003-1.074-0.468-2.081-1.23-2.624
			l-6.592-5.828l1.383-2.328l6.493,5.75c1.387,0.977,2.307,2.938,2.301,5.038l-0.132,51.782c-0.003,1.576-0.512,3.055-1.429,4.167
			C195.76,303.371,194.555,303.978,193.272,303.978"/>
		<path clip-path="url(#SVGID_4_)" fill="#0686D8" d="M169.37,303.535l-51.277-0.033c-2.652-0.016-4.8-2.662-4.792-5.896
			l0.132-51.337c0.006-2.073,0.917-4.005,2.377-5.054l7.175-5.824l1.303,2.396l-7.231,5.87c-0.802,0.576-1.266,1.564-1.269,2.62
			l-0.132,51.341c-0.005,1.65,1.092,3.002,2.443,3.01l51.273,0.033L169.37,303.535z"/>
		<rect x="135.152" y="225.01" clip-path="url(#SVGID_4_)" fill="#0686D8" width="42.968" height="2.875"/>
		<rect x="135.152" y="237.7" clip-path="url(#SVGID_4_)" fill="#0686D8" width="42.968" height="2.875"/>
		<rect x="135.152" y="250.395" clip-path="url(#SVGID_4_)" fill="#0686D8" width="42.968" height="2.874"/>
		<path clip-path="url(#SVGID_4_)" fill="#FFFFFF" d="M51.35,296.033c0.359,2.535-1.786,5.103-4.791,5.735
			c-3.006,0.637-5.73-0.902-6.088-3.437c-0.359-2.53,1.786-5.103,4.79-5.734C48.265,291.965,50.99,293.503,51.35,296.033"/>
		<path clip-path="url(#SVGID_4_)" fill="#0686D8" d="M45.189,303.355c-3.018,0-5.47-1.897-5.878-4.776
			c-0.24-1.681,0.297-3.447,1.469-4.852c1.074-1.288,2.595-2.189,4.28-2.545c3.701-0.779,6.972,1.242,7.449,4.607
			c0.238,1.681-0.296,3.448-1.469,4.852c-1.074,1.284-2.594,2.187-4.28,2.546C46.225,303.3,45.698,303.355,45.189,303.355
			 M46.571,293.896c-0.362,0-0.734,0.041-1.109,0.119c-1.204,0.251-2.309,0.895-3.034,1.764c-0.359,0.431-0.942,1.303-0.799,2.31
			c0.244,1.714,2.406,2.755,4.729,2.265c1.203-0.255,2.309-0.898,3.034-1.767c0.359-0.427,0.939-1.299,0.798-2.307
			C49.99,294.869,48.415,293.896,46.571,293.896"/>
		<path clip-path="url(#SVGID_4_)" fill="#FFFFFF" d="M66.772,296.033c0.359,2.535-1.787,5.103-4.793,5.735
			c-3.004,0.637-5.73-0.902-6.089-3.437c-0.356-2.53,1.787-5.103,4.793-5.734C63.687,291.965,66.413,293.503,66.772,296.033"/>
		<path clip-path="url(#SVGID_4_)" fill="#0686D8" d="M60.608,303.355c-3.017,0-5.47-1.897-5.878-4.776
			c-0.475-3.365,2.052-6.614,5.752-7.396c3.698-0.779,6.972,1.238,7.449,4.607c0.238,1.681-0.297,3.448-1.469,4.852
			c-1.075,1.284-2.596,2.19-4.282,2.546C61.645,303.3,61.116,303.355,60.608,303.355 M61.994,293.896
			c-0.362,0-0.734,0.041-1.109,0.119c-2.321,0.487-4.077,2.354-3.834,4.077c0.244,1.71,2.411,2.751,4.729,2.261
			c1.204-0.255,2.308-0.898,3.036-1.767c0.359-0.427,0.939-1.299,0.798-2.307C65.413,294.869,63.837,293.896,61.994,293.896"/>
		<polygon clip-path="url(#SVGID_4_)" fill="#0686D8" points="67.987,296.588 65.633,296.588 65.633,274.266 52.566,274.266 
			52.566,296.588 50.212,296.588 50.212,271.391 67.987,271.391 		"/>
		<path clip-path="url(#SVGID_4_)" fill="#0686D8" d="M118.599,141.483c-1.497,0-2.983-0.239-4.419-0.709l0.609-2.777
			c3.131,1.027,6.521,0.746,9.505-0.792c1.741-0.898,3.306-2.187,4.649-3.828c1.345-1.642,2.399-3.554,3.134-5.679
			c0.763-2.203,1.15-4.542,1.15-6.953h2.354c0,2.798-0.449,5.516-1.336,8.072c-0.854,2.471-2.079,4.689-3.638,6.591
			c-1.56,1.905-3.376,3.398-5.397,4.441C123.115,140.936,120.89,141.483,118.599,141.483"/>
		<polygon clip-path="url(#SVGID_4_)" fill="#0686D8" points="119.055,137.089 115.02,139.567 117.051,144.493 114.477,143.453 
			112.447,138.526 116.481,136.048 		"/>
		<path clip-path="url(#SVGID_4_)" fill="#0686D8" d="M102.952,128.816c-0.885-2.558-1.333-5.274-1.333-8.071
			c0-2.8,0.448-5.514,1.333-8.07c0.856-2.471,2.081-4.689,3.64-6.593c1.558-1.903,3.374-3.399,5.396-4.443
			c4.186-2.166,9.035-2.166,13.221,0c1.12,0.577,2.192,1.307,3.186,2.164l-1.358,2.349c-0.857-0.739-1.78-1.368-2.744-1.866
			c-3.604-1.862-7.786-1.862-11.387,0c-1.743,0.898-3.307,2.19-4.65,3.83c-1.344,1.642-2.398,3.552-3.134,5.679
			c-0.763,2.201-1.149,4.537-1.149,6.951c0,2.411,0.386,4.75,1.149,6.951L102.952,128.816z"/>
		<polygon clip-path="url(#SVGID_4_)" fill="#0686D8" points="121.547,105.087 127.169,104.456 126.648,97.59 129.255,100.235 
			129.774,107.099 124.154,107.733 		"/>
		<path clip-path="url(#SVGID_4_)" fill="#9ECFEF" d="M126.58,120.745c0,5.772-3.832,10.448-8.559,10.448
			c-4.726,0-8.557-4.676-8.557-10.448s3.831-10.449,8.557-10.449C122.748,110.296,126.58,114.973,126.58,120.745"/>
		<path clip-path="url(#SVGID_4_)" fill="#0686D8" d="M118.021,132.631c-5.367,0-9.733-5.331-9.733-11.886
			s4.366-11.889,9.733-11.889c5.369,0,9.734,5.334,9.734,11.889S123.39,132.631,118.021,132.631 M118.021,111.731
			c-4.069,0-7.379,4.043-7.379,9.014c0,4.97,3.31,9.011,7.379,9.011c4.07,0,7.38-4.041,7.38-9.011
			C125.402,115.774,122.092,111.731,118.021,111.731"/>
		<path clip-path="url(#SVGID_4_)" fill="#0686D8" d="M388.787,25.966c-3.703-6.963-9.966-11.122-16.749-11.122
			c-3.59,0-7.109,1.176-10.181,3.399l-1.202-2.475c3.437-2.486,7.373-3.799,11.383-3.799c7.587,0,14.585,4.646,18.724,12.434
			L388.787,25.966z"/>
		<path clip-path="url(#SVGID_4_)" fill="#0686D8" d="M354.994,33.431h-2.354c0-5.293-3.525-9.602-7.863-9.602v-2.875
			C350.411,20.954,354.994,26.55,354.994,33.431"/>
	</g>
</g>
</svg>
